<svg xmlns="http://www.w3.org/2000/svg" width="497.1" height="714.02"><defs><clipPath id="a"><path data-name="Rectangle 6535" fill="none" d="M0 0h497.1v714.02H0z"/></clipPath><filter id="b" x="80.001" y="36.001" width="543.105" height="745.032" filterUnits="userSpaceOnUse"><feOffset dx="8" dy="18"/><feGaussianBlur stdDeviation="16" result="blur"/><feFlood flood-opacity=".11"/><feComposite operator="in" in2="blur"/><feComposite in="SourceGraphic"/></filter></defs><g data-name="Group 10766"><g data-name="Group 10765" clip-path="url(#a)" transform="translate(25 32)"><g transform="translate(-120 -66)" filter="url(#b)"><path data-name="Path 24651" d="M192.092 307.865c-70.451-36.348-90.87-126.671-43.461-190.333a52.838 52.838 0 003.058-5.241l20.155-19.823c13.031-6.588 25.451-15.154 39.2-19.409 49.098-15.185 93.499-6.078 131.678 29.341 1.276 1.184 2.633 2.277 4.157 3.589C398 62.551 453.4 53.312 510.62 90.671c43.938 28.689 62.7 72.495 54.678 124.434-9.047 58.6-26.161 89.907-81.989 104.38 0-1.542.19 140.781-.416 140.173 59.014 16.4 72.685 54 77.818 116.767 4.435 54.228-18.834 97.062-67.163 122.335-55.794 29.177-107.443 17.818-153.622-23.692-50.613 42.647-105.626 52.257-162.784 15.337-44.142-28.516-63.153-72.065-55.483-124.043 8.722-59.1 11.419-93.948 67.669-108.52z" fill="#fff"/></g></g></g></svg>