<svg xmlns="http://www.w3.org/2000/svg" width="198.958" height="27.952"><defs><clipPath id="a"><path data-name="Rectangle 6493" fill="none" d="M0 0h198.958v27.952H0z"/></clipPath></defs><g data-name="Group 12"><g data-name="Group 10757" clip-path="url(#a)"><path data-name="Path 24619" d="M16.743 11.21a4.205 4.205 0 01-1.649-.172 2.864 2.864 0 00-1.854-.016 6.268 6.268 0 00-1.271.111 10.307 10.307 0 00-6.16 4.178l.045.26c.958 1.5 1.894 3.019 2.88 4.5a6 6 0 004.2 2.8c.385.249.829.055 1.233.161a6.151 6.151 0 004.76-2.135 36.726 36.726 0 003.57-5.6 10.789 10.789 0 00-5.752-4.086m-2.221-.017h-.037l.021-.012c-.043-.059.015-.026.016.013" fill="#3d5656"/><path data-name="Path 24620" d="M6.35 3.957a5 5 0 00-3.358 1.3c-1 .816-1.874.8-2.566 0A1.716 1.716 0 01.794 2.69a8.3 8.3 0 0111.145.065 1.783 1.783 0 01.338 2.5 1.682 1.682 0 01-2.582.005 4.827 4.827 0 00-3.344-1.3" fill="#3d5656"/><path data-name="Path 24621" d="M28.444 4.292a1.7 1.7 0 01-2.932 1.024 4.871 4.871 0 00-5.015-1.1 5.145 5.145 0 00-1.745 1.053 1.691 1.691 0 01-2.577 0 1.772 1.772 0 01.393-2.566 8.291 8.291 0 0111.2.1 1.935 1.935 0 01.675 1.5" fill="#3d5656"/><path data-name="Path 24622" d="M13.576 22.307a1.7 1.7 0 012.932-1.024 4.87 4.87 0 005.015 1.1 5.146 5.146 0 001.745-1.053 1.691 1.691 0 012.576 0 1.772 1.772 0 01-.393 2.566 8.292 8.292 0 01-11.2-.1 1.936 1.936 0 01-.675-1.5" fill="#3d5656"/><path data-name="Path 24623" d="M2.873 22.307a1.7 1.7 0 012.932-1.024 4.871 4.871 0 005.015 1.1 5.146 5.146 0 001.753-1.049 1.691 1.691 0 012.577 0 1.772 1.772 0 01-.393 2.566 8.291 8.291 0 01-11.2-.1 1.935 1.935 0 01-.675-1.5" fill="#3d5656"/><path data-name="Path 24624" d="M48.6 18.669v5.515a3.154 3.154 0 01-.965 2.311 3.24 3.24 0 01-2.385.965h-.055a3.2 3.2 0 01-2.4-1 3.034 3.034 0 01-.965-2.275V5.091a3.094 3.094 0 01.965-2.294 3.32 3.32 0 012.439-1h6.9a10.839 10.839 0 011.183.073l.182.055a8.2 8.2 0 015.115 2.84 8.033 8.033 0 012.057 5.46 9.117 9.117 0 01-1.584 4.987 7.074 7.074 0 01-6.3 3.422zm.018-5.187h2.421a2.841 2.841 0 002.166-.965 3.635 3.635 0 000-4.933 2.842 2.842 0 00-2.166-.965h-2.421z" fill="#68b984"/><path data-name="Path 24625" d="M82 25.477a2.3 2.3 0 01-.855 1.329 2.624 2.624 0 01-1.62.582q-2.676.018-5.479.018c-.194 0-.376-.006-.546-.018-.17.012-.352.018-.546.018a9.752 9.752 0 01-7.044-2.821 9.345 9.345 0 010-13.487 9.753 9.753 0 017.044-2.821q.291 0 .546.018.255-.018.546-.018a9.692 9.692 0 017.024 2.82 9.061 9.061 0 012.894 6.753v.017a1.965 1.965 0 01-.637 1.456 2.287 2.287 0 01-1.6.619H69.441a3.73 3.73 0 001.474 1.638 4.458 4.458 0 002.585.8h6.006a2.406 2.406 0 012.039.965 2.331 2.331 0 01.473 2.093zM73.5 13.3a4.465 4.465 0 00-2.53.767 3.891 3.891 0 00-1.474 1.565h7.991a3.765 3.765 0 00-1.457-1.565 4.466 4.466 0 00-2.53-.765" fill="#68b984"/><path data-name="Path 24626" d="M96.618 22.036a1.793 1.793 0 011 1.383 3.457 3.457 0 01-.2 1.711q-.837 2.276-2.566 2.275a5.291 5.291 0 01-5.042-3.076 13.759 13.759 0 01-1.238-6.28v-5.023h-.31a2.245 2.245 0 01-1.656-.655 2.166 2.166 0 01-.674-1.584v-.036a2.085 2.085 0 01.637-1.529 2.272 2.272 0 011.693-.71h.31V7.329a3.039 3.039 0 011.274-2.512 3.081 3.081 0 012.84-.528l.055.018a3.184 3.184 0 012.384 3.022v1.183h1.22a2.193 2.193 0 011.656.71 2.032 2.032 0 01.674 1.529v.036a2.108 2.108 0 01-.674 1.565 2.25 2.25 0 01-1.656.673h-1.22v5.388q0 2.858 1.493 3.622" fill="#68b984"/><path data-name="Path 24627" d="M111.323 11.952a12.078 12.078 0 015.078 3.131 6.917 6.917 0 011.675 4.7 7.261 7.261 0 01-2.366 5.551q-2.822 2.621-8.173 2.621a19.017 19.017 0 01-5.078-.892 2.774 2.774 0 01-1.693-1.292 2.681 2.681 0 01-.291-2.057l.018-.055a2.693 2.693 0 011.383-1.765 2.851 2.851 0 012.294-.237 13.376 13.376 0 003.7.728 4.377 4.377 0 002.494-.6 1.81 1.81 0 00.855-1.6 1.913 1.913 0 00-.746-1.529 10.8 10.8 0 00-3.058-1.474q-7.19-2.567-7.19-7.79a6.936 6.936 0 012.767-5.715 11.149 11.149 0 017.19-2.2 18.121 18.121 0 014.241.673 2.714 2.714 0 012.039 3.349l-.018.073a2.682 2.682 0 01-1.292 1.62 2.807 2.807 0 01-2.184.273 10.9 10.9 0 00-2.858-.455 3.8 3.8 0 00-2.33.619 1.545 1.545 0 00-.691 1.292 1.809 1.809 0 00.91 1.529 18.859 18.859 0 003.331 1.511" fill="#68b984"/><path data-name="Path 24628" d="M120.115 17.85a9.458 9.458 0 012.694-6.771 8.669 8.669 0 016.516-2.8q3.385 0 3.786.929v2.111a2.394 2.394 0 01.746-1.748 2.47 2.47 0 011.82-.728h1.493a2.494 2.494 0 011.838.728 2.426 2.426 0 01.765 1.766v14.54a1.411 1.411 0 01-.455 1.056 1.584 1.584 0 01-1.165.473h-2.4a2.894 2.894 0 01-1.838-1.146 1.031 1.031 0 00-.655-.346.9.9 0 00-.673.164 6.716 6.716 0 01-3.258 1.329 8.668 8.668 0 01-6.516-2.8 9.435 9.435 0 01-2.694-6.753m6.37-.146a5.408 5.408 0 001.019 3.331 2.893 2.893 0 002.33 1.256 3.65 3.65 0 001.656-.127 2.48 2.48 0 001.62-2.566v-4.5a2.771 2.771 0 00-1.747-1.474 3.852 3.852 0 00-3.2.164 2.555 2.555 0 00-1.2 1.383 5.426 5.426 0 00-.473 2.311z" fill="#68b984"/><path data-name="Path 24629" d="M162.106 24.366a3.04 3.04 0 01-.946 2.221 3.138 3.138 0 01-2.312.929h-.055a3.115 3.115 0 01-2.293-.929 3.038 3.038 0 01-.947-2.221v-6.862q0-2.875-1.492-3.6a3.183 3.183 0 00-3.222.291 3.3 3.3 0 00-1.747 2.038q-.037.164.018-.728l-.091 1.256v7.608a3.04 3.04 0 01-.947 2.221 3.115 3.115 0 01-2.293.929h-.092a3.115 3.115 0 01-2.293-.929 3.039 3.039 0 01-.946-2.221V10.933a2.116 2.116 0 01.655-1.547 2.223 2.223 0 011.638-.655h2.093a2.2 2.2 0 011.638.692 2.035 2.035 0 01.619 1.493v-.693a16.4 16.4 0 013.7-1.82 6.677 6.677 0 017.096 2.35 11.251 11.251 0 012.2 7.135z" fill="#68b984"/><path data-name="Path 24630" d="M164.09 17.85a9.458 9.458 0 012.694-6.771 8.669 8.669 0 016.516-2.8q3.385 0 3.786.929v2.111a2.394 2.394 0 01.746-1.748 2.47 2.47 0 011.82-.728h1.493a2.493 2.493 0 011.838.728 2.426 2.426 0 01.765 1.766v14.54a1.411 1.411 0 01-.455 1.056 1.584 1.584 0 01-1.165.473h-2.4a2.894 2.894 0 01-1.838-1.146 1.03 1.03 0 00-.655-.346.9.9 0 00-.673.164 6.715 6.715 0 01-3.258 1.329 8.668 8.668 0 01-6.516-2.8 9.435 9.435 0 01-2.694-6.753m6.37-.146a5.408 5.408 0 001.019 3.331 2.893 2.893 0 002.33 1.256 3.65 3.65 0 001.656-.127 2.48 2.48 0 001.62-2.566v-4.5a2.77 2.77 0 00-1.747-1.474 3.852 3.852 0 00-3.2.164 2.554 2.554 0 00-1.2 1.383 5.427 5.427 0 00-.473 2.311z" fill="#68b984"/><path data-name="Path 24631" d="M192.376 24.22a2.978 2.978 0 01-.91 2.184 3.167 3.167 0 01-2.348.983h-.055a3.166 3.166 0 01-2.348-.983 2.977 2.977 0 01-.91-2.184V11.789a3.03 3.03 0 01.928-2.221 3.2 3.2 0 012.348-.965h.091a3.167 3.167 0 012.8 1.438 3.114 3.114 0 01.91-.837 7.759 7.759 0 014.532-1.165 1.456 1.456 0 011.22.564 1.339 1.339 0 01.291 1.147l-.419 1.875q-.346 2.148-1.911 1.875a3.577 3.577 0 00-2.73.783 3.15 3.15 0 00-1.42 1.8" fill="#68b984"/><path data-name="Path 24632" d="M46.27 2.129L43.428.27a1.033 1.033 0 00-1.6.865v3.956" fill="#68b984"/><path data-name="Path 24633" d="M54.17 2.128L57.193.151a.916.916 0 011.418.767v4.173" fill="#68b984"/><path data-name="Path 24634" d="M44.797 1.968l-1.425-.932a.518.518 0 00-.8.434v1.983" fill="#cffde1"/><path data-name="Path 24635" d="M55.741 1.968l1.425-.932a.518.518 0 01.8.434v1.983" fill="#cffde1"/></g></g></svg>