<svg xmlns="http://www.w3.org/2000/svg" width="588.854" height="527.064"><g data-name="Group 10758" opacity=".151" fill="#cffde1"><path data-name="Path 24636" d="M131.473 70.119c-26.93-.749-49.172 10.3-69.519 26.828-20.792 16.894-38.8 16.651-53.117.034-14.062-16.321-11.209-36.23 7.607-53.1 65.7-58.917 169.515-58.317 230.719 1.342 16.7 16.274 19.511 37.113 6.994 51.769-13.886 16.267-33.991 17-53.448.115-20.109-17.451-42.468-27.453-69.236-26.988"/><path data-name="Path 24637" d="M588.849 77.051c-1.065 12.025-7.216 22.505-19.666 28.656-15.41 7.621-28.852 3.541-41.032-7.446-30.254-27.287-64.973-35.036-103.82-22.849-13.677 4.289-25.149 12.558-36.129 21.8-19.605 16.51-39.44 16.173-53.34-.027-13.306-15.5-10.17-36 8.133-53.117 63.726-59.572 170.082-58.594 231.879 2.023 8.324 8.16 14.178 17.216 13.975 30.96"/><path data-name="Path 24638" d="M281.053 450.012c1.059-12.025 7.216-22.51 19.659-28.656 15.417-7.621 28.852-3.541 41.038 7.446 30.254 27.287 64.967 35.036 103.813 22.849 13.677-4.289 25.149-12.558 36.135-21.8 19.6-16.51 39.433-16.173 53.333.027 13.306 15.5 10.17 36-8.134 53.117-63.722 59.574-170.08 58.597-231.877-2.02-8.322-8.16-14.176-17.218-13.967-30.963"/><path data-name="Path 24639" d="M59.539 450.012c1.068-12.025 7.217-22.51 19.668-28.656 15.409-7.621 28.85-3.541 41.03 7.446 30.254 27.287 64.974 35.036 103.82 22.849 13.677-4.289 25.149-12.558 36.129-21.8 19.605-16.51 39.44-16.173 53.34.027 13.306 15.5 10.17 36-8.133 53.117-63.727 59.574-170.086 58.597-231.88-2.02-8.322-8.161-14.176-17.218-13.974-30.963"/><path data-name="Path 24640" d="M346.608 220.266c-11.411-.9-23.2 1.882-34.139-3.547a59.268 59.268 0 00-38.388-.344c-8.821.209-17.521.283-26.323 2.293-53.828 12.287-95.312 42.498-127.522 86.498.31 1.787.614 3.581.924 5.368 19.835 31.1 39.217 62.5 59.625 93.212 20.759 31.239 48.963 52.106 86.933 57.906 7.985 5.153 17.164 1.14 25.534 3.332 38.8-1.49 73.593-13.819 98.533-44.208 29.155-35.535 51.654-75.758 73.916-115.926-30.147-41.645-69.993-69.626-119.093-84.584m-45.975-.357l-.769-.02c.142-.088.283-.148.432-.243-.884-1.234.3-.553.337.263"/></g></svg>