<svg xmlns="http://www.w3.org/2000/svg" width="210.081" height="29.515"><defs><clipPath id="a"><path data-name="Rectangle 17" fill="none" d="M0 0h210.081v29.515H0z"/></clipPath></defs><g data-name="Group 6" clip-path="url(#a)"><path data-name="Path 1" d="M6.705 4.178A5.283 5.283 0 003.16 5.545c-1.06.863-1.979.851-2.71 0A1.812 1.812 0 01.838 2.84a8.764 8.764 0 0111.768.068 1.882 1.882 0 01.357 2.64 1.776 1.776 0 01-2.726.006 5.1 5.1 0 00-3.532-1.376" fill="#cffde1"/><path data-name="Path 2" d="M30.034 4.532a1.8 1.8 0 01-3.1 1.082 5.142 5.142 0 00-5.3-1.165 5.428 5.428 0 00-1.843 1.112c-1 .842-2.012.825-2.721 0a1.871 1.871 0 01.425-2.708 8.755 8.755 0 0111.827.1 2.043 2.043 0 01.713 1.579" fill="#cffde1"/><path data-name="Path 3" d="M14.334 23.555a1.8 1.8 0 013.1-1.082 5.142 5.142 0 005.295 1.165 5.433 5.433 0 001.843-1.112c1-.842 2.011-.825 2.72 0a1.871 1.871 0 01-.415 2.709 8.755 8.755 0 01-11.827-.1 2.042 2.042 0 01-.712-1.579" fill="#cffde1"/><path data-name="Path 4" d="M3.037 23.555a1.8 1.8 0 013.1-1.082 5.142 5.142 0 005.3 1.165 5.428 5.428 0 001.843-1.112c1-.842 2.012-.825 2.721 0a1.871 1.871 0 01-.415 2.709 8.755 8.755 0 01-11.827-.1 2.043 2.043 0 01-.713-1.579" fill="#cffde1"/><path data-name="Path 5" d="M51.317 19.713v5.823a3.33 3.33 0 01-1.019 2.441 3.421 3.421 0 01-2.518 1.019h-.058a3.38 3.38 0 01-2.537-1.057 3.2 3.2 0 01-1.019-2.4V5.376a3.266 3.266 0 011.019-2.422 3.505 3.505 0 012.575-1.057h7.284a11.5 11.5 0 011.249.077l.192.058a8.659 8.659 0 015.4 3 8.482 8.482 0 012.172 5.766 9.63 9.63 0 01-1.672 5.266 7.471 7.471 0 01-6.65 3.613zm.019-5.478h2.556a3 3 0 002.287-1.019 3.64 3.64 0 001.019-2.595 3.664 3.664 0 00-1.019-2.614 3 3 0 00-2.287-1.019h-2.556z" fill="#fff"/><path data-name="Path 6" d="M86.585 26.9a2.421 2.421 0 01-.9 1.4 2.767 2.767 0 01-1.71.615q-2.825.019-5.785.019-.308 0-.577-.019-.269.019-.577.019a10.3 10.3 0 01-7.438-2.979 9.867 9.867 0 010-14.242 10.3 10.3 0 017.438-2.979c.2 0 .4.007.577.019.179-.012.371-.019.577-.019a10.235 10.235 0 017.419 2.979 9.57 9.57 0 013.056 7.13v.019a2.076 2.076 0 01-.673 1.538 2.414 2.414 0 01-1.691.653H73.323a3.938 3.938 0 001.557 1.73 4.707 4.707 0 002.729.846h6.342a2.541 2.541 0 012.153 1.019 2.462 2.462 0 01.5 2.21zM77.61 14.042a4.712 4.712 0 00-2.671.807 4.109 4.109 0 00-1.557 1.653h8.437a3.972 3.972 0 00-1.538-1.653 4.713 4.713 0 00-2.671-.807" fill="#fff"/><path data-name="Path 7" d="M102.018 23.269a1.893 1.893 0 011.057 1.461 3.648 3.648 0 01-.212 1.807q-.884 2.4-2.71 2.4a5.587 5.587 0 01-5.324-3.248 14.532 14.532 0 01-1.307-6.631v-5.3h-.326a2.37 2.37 0 01-1.749-.692 2.288 2.288 0 01-.711-1.672v-.039a2.2 2.2 0 01.673-1.614 2.4 2.4 0 011.788-.75h.326V7.737a3.209 3.209 0 011.345-2.652 3.253 3.253 0 013-.558l.057.019a3.362 3.362 0 012.518 3.19v1.249h1.288a2.316 2.316 0 011.749.75 2.145 2.145 0 01.711 1.614v.039a2.226 2.226 0 01-.711 1.653 2.377 2.377 0 01-1.749.711h-1.288v5.689q0 3.018 1.576 3.825" fill="#fff"/><path data-name="Path 8" d="M117.548 12.622a12.754 12.754 0 015.362 3.306 7.3 7.3 0 011.768 4.959 7.667 7.667 0 01-2.5 5.862q-2.979 2.768-8.629 2.768a20.075 20.075 0 01-5.364-.943 2.93 2.93 0 01-1.787-1.365 2.832 2.832 0 01-.308-2.172l.019-.058a2.844 2.844 0 011.461-1.864 3.008 3.008 0 012.422-.25 14.128 14.128 0 003.9.769 4.622 4.622 0 002.633-.634 1.91 1.91 0 00.9-1.691 2.019 2.019 0 00-.788-1.614 11.408 11.408 0 00-3.229-1.557q-7.592-2.71-7.591-8.226a7.324 7.324 0 012.921-6.035 11.774 11.774 0 017.592-2.326 19.117 19.117 0 014.478.711 2.866 2.866 0 012.153 3.536l-.019.077a2.83 2.83 0 01-1.365 1.71 2.964 2.964 0 01-2.306.289 11.5 11.5 0 00-3.017-.481 4.018 4.018 0 00-2.46.653 1.632 1.632 0 00-.73 1.365 1.912 1.912 0 00.961 1.615 19.932 19.932 0 003.517 1.6" fill="#fff"/><path data-name="Path 9" d="M126.83 18.847a9.987 9.987 0 012.844-7.15 9.153 9.153 0 016.88-2.96q3.575 0 4 .98v2.229a2.527 2.527 0 01.788-1.845 2.61 2.61 0 011.921-.766h1.576a2.633 2.633 0 011.941.769 2.56 2.56 0 01.807 1.864v15.355a1.488 1.488 0 01-.481 1.115 1.673 1.673 0 01-1.23.5h-2.537a3.054 3.054 0 01-1.941-1.211 1.09 1.09 0 00-.692-.365.95.95 0 00-.711.173 7.091 7.091 0 01-3.44 1.4 9.152 9.152 0 01-6.88-2.96 9.962 9.962 0 01-2.844-7.13m6.727-.154a5.71 5.71 0 001.076 3.517 3.054 3.054 0 002.46 1.326 3.856 3.856 0 001.749-.135 2.619 2.619 0 001.711-2.71v-4.744a2.927 2.927 0 00-1.845-1.557 4.067 4.067 0 00-3.383.173 2.7 2.7 0 00-1.268 1.461 5.723 5.723 0 00-.5 2.441z" fill="#fff"/><path data-name="Path 10" d="M171.169 25.729a3.21 3.21 0 01-1 2.345 3.313 3.313 0 01-2.441.98h-.058a3.29 3.29 0 01-2.422-.98 3.209 3.209 0 01-1-2.345v-7.246q0-3.037-1.576-3.806a3.362 3.362 0 00-3.4.308 3.492 3.492 0 00-1.845 2.153q-.039.173.019-.769l-.1 1.326v8.034a3.209 3.209 0 01-1 2.345 3.289 3.289 0 01-2.422.98h-.1a3.29 3.29 0 01-2.422-.98 3.209 3.209 0 01-1-2.345V11.545a2.234 2.234 0 01.692-1.634 2.347 2.347 0 011.73-.692h2.21a2.325 2.325 0 011.73.73 2.149 2.149 0 01.653 1.576v-.734a17.336 17.336 0 013.9-1.922 7.051 7.051 0 017.5 2.479 11.88 11.88 0 012.332 7.543z" fill="#fff"/><path data-name="Path 11" d="M173.268 18.847a9.987 9.987 0 012.844-7.15 9.153 9.153 0 016.88-2.96q3.575 0 4 .98v2.229a2.527 2.527 0 01.788-1.845 2.609 2.609 0 011.917-.766h1.571a2.632 2.632 0 011.941.769 2.56 2.56 0 01.807 1.864v15.355a1.489 1.489 0 01-.481 1.115 1.673 1.673 0 01-1.23.5h-2.537a3.056 3.056 0 01-1.941-1.211 1.089 1.089 0 00-.692-.365.95.95 0 00-.711.173 7.09 7.09 0 01-3.44 1.4 9.152 9.152 0 01-6.88-2.96 9.962 9.962 0 01-2.844-7.13m6.727-.154a5.71 5.71 0 001.076 3.517 3.054 3.054 0 002.46 1.326 3.856 3.856 0 001.749-.135 2.619 2.619 0 001.711-2.71v-4.744a2.927 2.927 0 00-1.845-1.557 4.067 4.067 0 00-3.383.173 2.7 2.7 0 00-1.268 1.461 5.729 5.729 0 00-.5 2.441z" fill="#fff"/><path data-name="Path 12" d="M203.131 25.575a3.145 3.145 0 01-.961 2.306 3.344 3.344 0 01-2.479 1.038h-.058a3.343 3.343 0 01-2.479-1.038 3.143 3.143 0 01-.961-2.306V12.448a3.2 3.2 0 01.98-2.345 3.375 3.375 0 012.479-1.019h.1a3.344 3.344 0 012.96 1.518 3.288 3.288 0 01.961-.884 8.2 8.2 0 014.786-1.23 1.538 1.538 0 011.288.6 1.413 1.413 0 01.307 1.211l-.442 1.98q-.365 2.268-2.018 1.98a3.776 3.776 0 00-2.883.827 3.327 3.327 0 00-1.5 1.9" fill="#fff"/><path data-name="Path 13" d="M48.857 2.248l-3-1.963a1.091 1.091 0 00-1.689.916v4.174" fill="#fff"/><path data-name="Path 14" d="M57.199 2.247L60.391.159a.968.968 0 011.5.81v4.406" fill="#fff"/><path data-name="Path 15" d="M47.301 2.078l-1.5-.984a.547.547 0 00-.847.458v2.094" fill="#3d5656"/><path data-name="Path 16" d="M58.856 2.078l1.5-.984a.547.547 0 01.847.458v2.094" fill="#3d5656"/><path data-name="Path 17" d="M17.679 11.836a4.446 4.446 0 01-1.741-.181 3.023 3.023 0 00-1.958-.018 6.627 6.627 0 00-1.343.117 10.884 10.884 0 00-6.5 4.412l.047.274c1.012 1.586 2 3.188 3.041 4.754a6.333 6.333 0 004.434 2.953c.407.263.875.058 1.3.17a6.5 6.5 0 005.026-2.255 38.786 38.786 0 003.77-5.913 11.4 11.4 0 00-6.074-4.314m-2.345-.018h-.041l.022-.012c-.045-.063.015-.028.017.013" fill="#cffde1"/></g></svg>