<svg xmlns="http://www.w3.org/2000/svg" width="154.358" height="225"><g data-name="Group 10759"><path data-name="Path 24641" d="M55.478 152.967v45.188a25.837 25.837 0 01-7.9 18.941 26.544 26.544 0 01-19.536 7.9h-.448a26.227 26.227 0 01-19.686-8.2 24.86 24.86 0 01-7.9-18.642V41.71a25.344 25.344 0 017.9-18.792 27.2 27.2 0 0119.985-8.2H84.41a89.23 89.23 0 019.695.6l1.495.442a67.191 67.191 0 0141.9 23.265 65.818 65.818 0 0116.854 44.742q0 20.732-12.975 40.864-17.6 27.739-51.6 28.038zm.15-42.505h19.835a23.275 23.275 0 0017.748-7.9 28.242 28.242 0 007.9-20.134 28.434 28.434 0 00-7.9-20.284 23.293 23.293 0 00-17.748-7.9H55.627z" fill="#69b884"/><path data-name="Path 24642" d="M36.385 17.439L13.1 2.209A8.466 8.466 0 000 9.296v32.413" fill="#69b884"/><path data-name="Path 24643" d="M101.117 17.438l24.768-16.2a7.508 7.508 0 0111.617 6.282v34.187" fill="#69b884"/><path data-name="Path 24644" d="M24.311 16.128L12.636 8.492a4.246 4.246 0 00-6.569 3.553v16.252" fill="#3d5656"/><path data-name="Path 24645" d="M113.977 16.128l11.673-7.637a4.245 4.245 0 016.569 3.553v16.253" fill="#3d5656"/></g></svg>