<svg xmlns="http://www.w3.org/2000/svg" width="161.002" height="219.335"><path data-name="Path 24646" d="M57.866 144.202v47.133a26.949 26.949 0 01-8.244 19.756 27.687 27.687 0 01-20.377 8.244h-.468a27.356 27.356 0 01-20.533-8.556A25.93 25.93 0 010 191.334V28.156a26.435 26.435 0 018.244-19.6A28.369 28.369 0 0129.089 0h58.954a93.068 93.068 0 0110.112.621l1.556.468a70.082 70.082 0 0143.711 24.267A68.65 68.65 0 01161 72.023q0 21.624-13.534 42.622-18.359 28.933-53.823 29.245zm.156-44.335h20.689a24.277 24.277 0 0018.512-8.244 29.458 29.458 0 008.244-21 29.658 29.658 0 00-8.244-21.157 24.3 24.3 0 00-18.512-8.244H58.022z" fill="#fff"/></svg>