<svg xmlns="http://www.w3.org/2000/svg" width="300" height="77" viewBox="0 0 262 72"><g data-name="Group 10769"><g data-name="Group 10768"><path data-name="Path 24641" d="M179.813 44.693v13.2a7.549 7.549 0 01-2.309 5.534 7.755 7.755 0 01-5.708 2.309h-.131a7.663 7.663 0 01-5.752-2.4 7.263 7.263 0 01-2.309-5.447V12.187a7.4 7.4 0 012.309-5.49 7.947 7.947 0 015.839-2.4h16.514a26.071 26.071 0 012.833.174l.436.131a19.631 19.631 0 0112.244 6.8 19.23 19.23 0 014.925 13.073 21.833 21.833 0 01-3.791 11.939q-5.143 8.1-15.077 8.192zm.044-12.419h5.8a6.8 6.8 0 005.185-2.309 8.252 8.252 0 002.309-5.883 8.308 8.308 0 00-2.309-5.926 6.806 6.806 0 00-5.185-2.309h-5.8z" fill="#69b884"/><path data-name="Path 24642" d="M174.235 5.095l-6.8-4.45a2.474 2.474 0 00-3.831 2.071v9.47" fill="#69b884"/><path data-name="Path 24643" d="M193.147 5.095l7.237-4.734a2.194 2.194 0 013.394 1.839v9.989" fill="#69b884"/><path data-name="Path 24644" d="M170.704 4.713l-3.411-2.231a1.24 1.24 0 00-1.919 1.038v4.748" fill="#3d5656"/><path data-name="Path 24645" d="M196.905 4.713l3.41-2.231a1.24 1.24 0 011.919 1.038v4.748" fill="#3d5656"/></g><text transform="translate(0 21)" fill="#183838" font-size="55" font-weight="700" font-family="SimplyRounded, Simply Rounded"><tspan x="0" y="46">Stand</tspan></text><text transform="translate(196 21)" fill="#183838" font-size="55" font-weight="700" font-family="SimplyRounded, Simply Rounded"><tspan x="0" y="46">ets</tspan></text></g></svg>